<?xml version="1.0" encoding="utf-8"?>
<!-- Generator: Adobe Illustrator 26.1.0, SVG Export Plug-In . SVG Version: 6.00 Build 0)  -->
<svg version="1.1" id="Layer_1" xmlns="http://www.w3.org/2000/svg" xmlns:xlink="http://www.w3.org/1999/xlink" x="0px" y="0px"
	 viewBox="0 0 458.5 352.43" style="enable-background:new 0 0 458.5 352.43;" xml:space="preserve">
<style type="text/css">
	.st0{fill:none;stroke:#25FF00;stroke-width:5;stroke-miterlimit:10;}
	.st1{fill:none;stroke:#000000;stroke-miterlimit:10;}
	.st2{fill:#FFFFFF;}
	.st3{fill:#FFFFFF;stroke:#25FF00;stroke-miterlimit:10;}
	.st4{fill:none;stroke:#25FF00;stroke-width:7.702;stroke-miterlimit:10;}
	.st5{fill:#25FF00;}
	.st6{fill:none;stroke:#25FF00;stroke-width:10.989;stroke-miterlimit:10;}
	.st7{fill:none;stroke:#25FF00;stroke-width:14;stroke-miterlimit:10;stroke-dasharray:29.885,29.885;}
	.st8{fill:none;stroke:#25FF00;stroke-width:12;stroke-miterlimit:10;}
	.st9{fill:none;stroke:#25FF00;stroke-width:8.569;stroke-miterlimit:10;}
	.st10{fill:none;stroke:#25FF00;stroke-width:14;stroke-miterlimit:10;}
	.st11{fill:none;stroke:#25FF00;stroke-width:14;stroke-miterlimit:10;stroke-dasharray:28.941,28.941;}
</style>
<g>
	<path class="st3" d="M189.26,206.65c-11.71-6.89-21.52-16.73-28.37-28.48l-1.14-1.95l1.14-1.95c6.84-11.75,16.65-21.59,28.37-28.48
		c12.08-7.1,25.9-10.85,39.98-10.85c14.08,0,27.91,3.75,39.98,10.85c11.71,6.89,21.52,16.73,28.37,28.48l1.14,1.95l-1.14,1.95
		c-6.84,11.75-16.65,21.59-28.37,28.48c-12.08,7.1-25.9,10.85-39.98,10.85C215.17,217.5,201.34,213.75,189.26,206.65 M265.3,152.47
		c-10.89-6.4-23.35-9.78-36.05-9.78s-25.17,3.38-36.05,9.78c-9.91,5.83-18.31,14.01-24.41,23.74c6.1,9.74,14.5,17.92,24.41,23.74
		c10.89,6.4,23.35,9.78,36.05,9.78s25.17-3.38,36.05-9.78c9.91-5.83,18.31-14.01,24.41-23.74
		C283.61,166.48,275.21,158.3,265.3,152.47"/>
	<path class="st3" d="M260.05,176.21c0,17.01-13.79,30.81-30.81,30.81s-30.81-13.79-30.81-30.81s13.79-30.81,30.81-30.81
		S260.05,159.2,260.05,176.21"/>
</g>
</svg>
