<?xml version="1.0" encoding="utf-8"?>
<!-- Generator: Adobe Illustrator 26.1.0, SVG Export Plug-In . SVG Version: 6.00 Build 0)  -->
<svg version="1.1" id="Layer_1" xmlns="http://www.w3.org/2000/svg" xmlns:xlink="http://www.w3.org/1999/xlink" x="0px" y="0px"
	 viewBox="0 0 838.75 881.95" style="enable-background:new 0 0 838.75 881.95;" xml:space="preserve">
<style type="text/css">
	.st0{fill:none;stroke:#25FF00;stroke-width:5;stroke-miterlimit:10;}
	.st1{fill:none;stroke:#000000;stroke-miterlimit:10;}
	.st2{fill:#FFFFFF;}
	.st3{fill:#FFFFFF;stroke:#25FF00;stroke-miterlimit:10;}
	.st4{fill:none;stroke:#25FF00;stroke-width:7.702;stroke-miterlimit:10;}
	.st5{fill:#25FF00;}
	.st6{fill:none;stroke:#25FF00;stroke-width:10.989;stroke-miterlimit:10;}
	.st7{fill:none;stroke:#25FF00;stroke-width:14;stroke-miterlimit:10;stroke-dasharray:29.885,29.885;}
	.st8{fill:none;stroke:#25FF00;stroke-width:12;stroke-miterlimit:10;}
	.st9{fill:none;stroke:#25FF00;stroke-width:8.569;stroke-miterlimit:10;}
	.st10{fill:none;stroke:#25FF00;stroke-width:14;stroke-miterlimit:10;}
	.st11{fill:none;stroke:#25FF00;stroke-width:14;stroke-miterlimit:10;stroke-dasharray:28.941,28.941;}
</style>
<g>
	<path class="st5" d="M345.46,236.21c-47.64-76.62-116.62-122.28-205.38-138.86c1-1.35,2-1.7,2.92-2.19
		c12.48-6.69,24.96-13.38,37.43-20.08c3.38-1.82,3.4-1.92,1.66-5.19c-1.39-2.62-2.78-5.24-4.19-7.85c-1.68-3.13-1.86-3.21-5.03-1.51
		c-23.37,12.5-46.72,25.03-70.1,37.52c-1.4,0.75-2.68,1.68-4.5,1.59c-3.92-0.19-7.85-0.12-11.77-0.12c-3.94,0-3.95,0.01-3.95,4.01
		c0,180.39,0,360.78,0,541.16h0v177.84h16.17V680.56c3.91,1.02,7.68,2.68,11.48,4.81c20.68,11.63,41.72,22.61,62.63,33.85
		c3.3,1.78,3.39,1.74,5.19-1.62c1.4-2.62,2.77-5.25,4.17-7.87c1.72-3.23,1.67-3.45-1.66-5.23c-10.97-5.86-21.97-11.67-32.92-17.57
		c-2.22-1.2-4.65-2.1-7.13-4.37c73.53-13.28,134.35-47.75,181.31-105.28c47.01-57.6,68.9-124.08,66.53-198.33
		C386.68,327.67,372.55,279.78,345.46,236.21z M333.81,531.55c-27.48,46.49-65.24,82.24-113.13,107.2
		c-25,13.03-51.42,21.92-79.81,26.81c0.91-2.15,2.18-2.75,3.19-3.56c10.18-8.11,20.4-16.18,30.6-24.26c2.96-2.34,2.95-2.35,0.56-5.4
		c-1.9-2.41-3.92-4.73-5.67-7.23c-1.49-2.13-2.66-2.25-4.76-0.57c-20.72,16.54-41.53,32.98-62.31,49.44
		c-0.45,0.36-0.89,0.73-1.35,1.07c-0.53,0.38-1.03,1.03-1.75,0.67c-0.73-0.36-0.49-1.17-0.53-1.81c-0.04-0.67-0.01-1.34-0.01-2.01
		c0-76.24,0-152.48,0.01-228.71c0-1.59-0.27-3.22,0.44-5.15c1.57,2.5,2.03,5.11,2.93,7.52c13.16,35.24,35.35,63.21,66.98,83.67
		c2.34,1.52,4.06,1.42,6.41-0.14c31.45-20.86,53.69-49.01,66.47-84.46c8.23-22.82,11.08-46.4,8.77-70.65
		c-3.68-38.47-19.2-71.36-45.93-99.05c-8.94-9.26-18.75-17.48-29.91-24.04c-2.15-1.26-3.72-1.38-5.94,0.07
		c-32.85,21.41-55.96,50.37-68.28,87.74c-0.34,1.03-0.8,2.02-1.21,3.02l-0.75-0.11v-3.57c0-77,0-154.01,0.02-231.01
		c0-1.08-0.59-2.65,0.61-3.13c1.08-0.43,1.96,0.94,2.83,1.62c8.49,6.7,16.96,13.43,25.44,20.15c12.3,9.75,24.65,19.46,36.88,29.29
		c2.15,1.73,3.46,1.71,5.05-0.57c1.8-2.59,3.78-5.08,5.87-7.44c1.73-1.95,1.61-3.19-0.51-4.85c-10.2-7.93-20.3-16-30.41-24.05
		c-1.01-0.8-2.27-1.4-3.04-3.66c75.26,14.84,135.39,52.46,179.52,114.58C384.58,318.36,389.33,437.65,333.81,531.55z M185.98,447.49
		c10.77,3.63,21.8,3.81,32.85,1.02c0.37-0.09,0.73-0.25,1.11-0.3c0.82-0.11,1.78-0.68,2.45,0.06c0.73,0.82-0.11,1.62-0.44,2.35
		c-10.84,23.84-26.72,43.63-47.68,59.36c-1.56,1.17-2.74,1.22-4.3,0.03c-23.57-17.93-41.12-40.43-51.62-68.23
		c-6.29-16.66-9.16-33.95-9.23-57.55c1.08-43.65,20.76-83.68,60.43-113.63c2.01-1.52,3.39-1.65,5.48-0.09
		c20.82,15.58,36.66,35.16,47.53,58.77c0.2,0.43,0.39,0.88,0.53,1.33c0.21,0.68,0.98,1.38,0.23,2.09c-0.56,0.53-1.27,0.12-1.9-0.06
		c-10.42-3.08-20.96-3.52-31.48-0.76c-21.23,5.56-35.97,18.74-42.7,39.56C136.73,403.98,153.59,436.57,185.98,447.49z"/>
	<path class="st5" d="M756.03,378.95c-1.64-51.29-15.77-99.18-42.85-142.74C665.54,159.59,596.56,113.93,507.8,97.35
		c1-1.35,2-1.7,2.92-2.19c12.48-6.69,24.96-13.38,37.44-20.08c3.38-1.82,3.4-1.92,1.65-5.19c-1.39-2.62-2.78-5.24-4.19-7.85
		c-1.68-3.13-1.86-3.21-5.03-1.51c-23.37,12.5-46.72,25.03-70.1,37.52c-1.4,0.75-2.68,1.68-4.5,1.59
		c-3.92-0.19-7.85-0.12-11.77-0.12c-3.94,0-3.95,0.01-3.95,4.01c0,180.39,0,360.78,0,541.16h0v177.84h16.17V700.85l121.68,121.68
		h22.87L470.22,681.77c2.59,0.96,5.14,2.17,7.69,3.61c20.68,11.63,41.72,22.61,62.63,33.85c3.3,1.78,3.39,1.74,5.19-1.62
		c1.4-2.62,2.77-5.25,4.17-7.87c1.72-3.23,1.67-3.45-1.66-5.23c-10.97-5.86-21.97-11.67-32.92-17.57c-2.22-1.2-4.65-2.1-7.13-4.37
		c73.53-13.28,134.35-47.75,181.31-105.28C736.51,519.69,758.4,453.21,756.03,378.95z M701.53,531.55
		c-27.48,46.49-65.24,82.24-113.13,107.2c-25,13.03-51.42,21.92-79.81,26.81c0.91-2.15,2.18-2.75,3.19-3.56
		c10.18-8.11,20.4-16.18,30.6-24.26c2.96-2.34,2.95-2.35,0.56-5.4c-1.89-2.41-3.92-4.73-5.67-7.23c-1.49-2.13-2.66-2.25-4.76-0.57
		c-20.72,16.54-41.53,32.98-62.31,49.44c-0.45,0.36-0.89,0.73-1.35,1.07c-0.53,0.38-1.03,1.03-1.75,0.67
		c-0.73-0.36-0.49-1.17-0.53-1.81c-0.04-0.67-0.01-1.34-0.01-2.01c0-76.24,0-152.48,0.01-228.71c0-1.59-0.27-3.22,0.44-5.15
		c1.57,2.5,2.03,5.11,2.94,7.52c13.16,35.24,35.35,63.21,66.97,83.67c2.34,1.52,4.06,1.42,6.41-0.14
		c31.45-20.86,53.69-49.01,66.47-84.46c8.23-22.82,11.08-46.4,8.77-70.65c-3.68-38.47-19.2-71.36-45.93-99.05
		c-8.93-9.26-18.75-17.48-29.91-24.04c-2.15-1.26-3.72-1.38-5.94,0.07c-32.85,21.41-55.96,50.37-68.28,87.74
		c-0.34,1.03-0.8,2.02-1.21,3.02l-0.75-0.11v-3.57c0-77,0-154.01,0.02-231.01c0-1.08-0.59-2.65,0.61-3.13
		c1.08-0.43,1.96,0.94,2.83,1.62c8.49,6.7,16.96,13.43,25.44,20.15c12.3,9.75,24.64,19.46,36.88,29.29
		c2.15,1.73,3.46,1.71,5.05-0.57c1.8-2.59,3.78-5.08,5.87-7.44c1.73-1.95,1.61-3.19-0.51-4.85c-10.2-7.93-20.3-16-30.41-24.05
		c-1.01-0.8-2.27-1.4-3.04-3.66c75.26,14.84,135.39,52.46,179.52,114.58C752.3,318.36,757.05,437.65,701.53,531.55z M553.71,447.49
		c10.77,3.63,21.8,3.81,32.85,1.02c0.37-0.09,0.73-0.25,1.11-0.3c0.82-0.11,1.78-0.68,2.45,0.06c0.73,0.82-0.11,1.62-0.44,2.35
		c-10.84,23.84-26.72,43.63-47.68,59.36c-1.56,1.17-2.74,1.22-4.3,0.03c-23.57-17.93-41.12-40.43-51.62-68.23
		c-6.29-16.66-9.16-33.95-9.23-57.55c1.08-43.65,20.76-83.68,60.43-113.63c2.01-1.52,3.39-1.65,5.48-0.09
		c20.82,15.58,36.66,35.16,47.53,58.77c0.2,0.43,0.39,0.88,0.53,1.33c0.21,0.68,0.98,1.38,0.23,2.09c-0.56,0.53-1.27,0.12-1.9-0.06
		c-10.42-3.08-20.96-3.52-31.48-0.76c-21.23,5.56-35.97,18.74-42.7,39.56C504.45,403.98,521.32,436.57,553.71,447.49z"/>
</g>
</svg>
