<svg class="logo" xmlns="http://www.w3.org/2000/svg" viewBox="0 0 333.9 263"><path d="M19.2 125.5c8.4-44.8 31.4-79.7 70.1-103.7C111.3 8.1 135.5 1 161.4.1c37.5-1.2 71.1 9.9 100.2 33.6 29.1 23.7 46.5 54.4 53.2 91.6 1.1-1.2 1.6-2.5 2.2-3.6 3-5.5 5.9-11.1 8.9-16.6.9-1.7 1-1.7 2.6-.8 1.3.7 2.6 1.4 4 2.1 1.7.9 1.7.9.8 2.6-5.7 10.6-11.2 21.2-17.1 31.6-2.1 3.8-3.3 7.6-2.9 11.9.2 2 0 2-2 2h-289c-2 0-2 0-2-2s0-4 .1-6c0-.9-.4-1.6-.8-2.3L.7 108.8c-.9-1.6-.8-1.7.8-2.5 1.3-.7 2.6-1.4 4-2.1 1.6-.9 1.7-.9 2.6.8 3.4 6.3 6.8 12.6 10.1 18.9.1.6.3 1.1 1 1.6m287-.4c-2.5-14.3-7-27.7-13.5-40.3C280 60.6 262 41.5 238.5 27.6 191.1-.4 130.8 2 85.7 34c-31.4 22.3-50.4 52.7-57.9 90.7 1.1-.4 1.4-1 1.9-1.5 4.1-5.1 8.1-10.2 12.1-15.4.8-1.1 1.5-1.1 2.4-.3 1.2 1.1 2.4 2.1 3.8 3 1.1.8 1.2 1.5.3 2.6-5 6.2-9.9 12.4-14.8 18.6-3.4 4.3-6.8 8.6-10.2 12.8-.4.4-1 .9-.8 1.4.2.6 1 .3 1.6.3h118.5c0-.1 0-.2.1-.4l-1.5-.6c-18.9-6.2-33.5-17.9-44.3-34.5-.7-1.1-.7-1.9 0-3 3.3-5.6 7.5-10.6 12.1-15.1 14-13.5 30.6-21.3 50-23.2 12.2-1.2 24.2.3 35.7 4.4 17.9 6.5 32.1 17.7 42.7 33.6.8 1.2.8 2.1.1 3.2-10.3 16-24.5 27.2-42.3 33.8-1.2.5-2.5.7-3.8 1.5 1 .4 1.8.2 2.6.2h116.5c.3 0 .7.1.9-.3.2-.4-.1-.6-.3-.9-.2-.2-.4-.5-.5-.7-8.3-10.5-16.6-21-25-31.5-.9-1.1-.8-1.6.3-2.4 1.3-.9 2.4-1.9 3.6-2.9 1.5-1.2 1.5-1.2 2.7.3 4.1 5.1 8.2 10.3 12.3 15.5.3.8.6 1.4 1.7 1.9m-142.1 16c11.9 0 20.7-1.5 29.1-4.7 14-5.3 25.4-14.2 34.5-26.1.6-.8.6-1.4 0-2.2-7.9-10.6-17.9-18.6-30-24.1-.4-.2-.8-.6-1.2-.2-.4.3-.1.8 0 1.2 0 .2.1.4.1.6 1.4 5.6 1.3 11.2-.5 16.6-5.5 16.4-22 24.9-38.4 19.6-10.5-3.4-17.2-10.8-20-21.6-1.4-5.3-1.2-10.6.4-15.9.1-.3.3-.7 0-1-.4-.4-.7 0-1 .1-.2.1-.5.2-.7.3-11.9 5.5-21.8 13.5-29.7 24-.8 1.1-.7 1.8 0 2.8 15.1 20.1 35.3 30.1 57.4 30.6m23.7 104.6c.6-.4.7-.9.8-1.3 2.8-9.6 5.5-19.2 8.2-28.9.4-1.3.9-1.8 2.3-1.8 4.5.1 3.6-.5 4.8 3.6 2.7 9.1 5.4 18.1 8.1 27.2.1.4.2.9.6.9.5 0 .4-.5.5-.9 2.7-9.4 5.5-18.8 8.1-28.3.4-1.4 1-2.1 2.5-2 1.9.1 3.8 0 5.7 0 2.1 0 2.2.2 1.5 2.3l-5.1 15.3c-3.2 9.8-6.5 19.5-9.7 29.3-.4 1.1-.9 1.5-2 1.5h-4.2c-.8 0-1.3-.4-1.6-1.2-2.7-8.9-5.4-17.8-8.1-26.6-.2-.7-.5-1.3-.8-2.3-1.1 2-1.4 4-1.9 5.8l-6.6 22.8c-.3 1-.8 1.6-1.9 1.5-1.2-.1-2.3-.1-3.5 0-1.4.1-2.1-.4-2.5-1.8-1.7-5.8-3.6-11.5-5.4-17.3-2.8-9-5.6-18.1-8.5-27.1-.6-1.8-.4-2.1 1.4-2.1 2 0 4 .1 6 0 1.3-.1 2 .4 2.3 1.8 2.7 9.3 5.5 18.6 8.2 27.9.3.6.5 1.1.8 1.7m-28.1-60.8v-21.6c0-1.4.4-2 1.9-1.9 2 .1 4 .1 6 0 1.2 0 1.6.4 1.6 1.6v15.2c0 1.4.4 1.8 1.8 1.8 4.5-.1 9-.1 13.5 0 1.3 0 1.6-.4 1.6-1.7v-15.2c0-1.4.5-1.8 1.8-1.7 1.9.1 3.9.1 5.8 0 1.4-.1 1.8.4 1.8 1.8V207c0 1.2-.3 1.7-1.5 1.6-2.1-.1-4.2-.1-6.2 0-1.2 0-1.6-.4-1.6-1.6v-17.5c0-1.5-.4-1.9-1.9-1.9-4.4.1-8.8.1-13.2 0-1.5 0-1.9.5-1.8 1.9.1 5.8 0 11.6.1 17.4 0 1.4-.5 1.8-1.8 1.7-1.9-.1-3.9-.1-5.8 0-1.4.1-1.9-.4-1.8-1.8-.3-7.3-.3-14.6-.3-21.9M30 243.7c-.7.6-.5 1.2-.5 1.8 0 4.8-.1 9.7 0 14.5 0 1.4-.5 1.9-1.9 1.8-1.9-.1-3.8 0-5.7 0-1.8 0-1.9-.1-1.9-1.9v-43.5c0-1.8.1-1.9 1.9-1.9 4.9.1 9.8-.3 14.6.4 4.8.7 8.8 2.7 10.6 7.4 2 5.2 1.8 10.3-1.4 15.1-1.3 2-3.2 3.4-5.4 4.1-1.2.4-1.3.8-.6 1.8 3.7 5.5 7.4 11.1 11.1 16.6.3.5.9.9.7 1.5-.3.7-1.1.4-1.7.4h-7.4c-1.2 0-1.9-.4-2.4-1.4-3.1-5.1-6.2-10.3-9.3-15.4-.1-.4-.4-.8-.7-1.3m-.5-14.6v5.8c0 .6.1 1.2.9 1.2 2.7 0 5.5-.1 7.4-2.5 1.8-2.4 1.7-5.2.8-7.9-.5-1.5-1.6-2.4-3-2.9-1.5-.6-3-.5-4.6-.7-1.1-.1-1.6.4-1.5 1.5v5.5m207.8-38.4c-.5.5-.3 1-.3 1.5v14.7c0 1.4-.4 1.8-1.7 1.7-2-.1-4-.1-6 0-1.3 0-1.7-.4-1.7-1.8v-43.7c0-1.3.3-1.8 1.7-1.8 4.1.1 8.1 0 12.2 0 2.3 0 4.6.5 6.8 1.3 4.5 1.8 6.9 5.3 7.6 10 .5 3.6.1 7-1.6 10.3-1.4 2.5-3.3 4.4-6.1 5.3-1.4.4-1.3 1-.6 2 3.8 5.5 7.5 11.1 11.2 16.6.3.4.9.8.5 1.4-.3.5-.9.3-1.4.3h-8c-1 0-1.7-.3-2.2-1.2-3-5.1-6.1-10.1-9.1-15.1-.3-.6-.5-1.3-1.3-1.5m2.7-7.7c2-.1 4.5-.6 5.9-3.3 2.7-5.2-.2-10.3-6-10.6h-1.3c-1.2-.1-1.6.3-1.6 1.5.1 3.4 0 6.9 0 10.3.1 2.1.1 2.1 3 2.1m-159.8 2v-21.8c0-1.5.5-1.9 1.9-1.9 3.9.1 7.8 0 11.8 0 2.4 0 4.7.4 6.9 1.3 4.5 1.8 7 5.1 7.6 9.8.7 4.8 0 9.4-3.5 13.1-1.2 1.3-2.6 2.2-4.2 2.7-1.2.4-1.3.9-.6 1.9 3.8 5.5 7.4 11.1 11.2 16.6.3.4.9.9.6 1.4-.3.6-1 .3-1.6.4h-7.7c-1.1 0-1.8-.3-2.3-1.3-3-5-6-10-9.1-15-.2-.4-.4-.8-.7-1.1-.2-.2-.4-.5-.7-.4-.3.1-.3.5-.3.8v15.7c0 1.1-.4 1.5-1.4 1.5-2.1 0-4.3-.1-6.4 0-1.2 0-1.6-.5-1.6-1.6.2-7.5.1-14.8.1-22.1m9.4-9.1v3.8c0 3.6 0 3.6 3.6 3.2 2.2-.2 4.1-1 5.3-3.1 2.8-5-.1-10.3-5.7-10.8-.6 0-1.3 0-1.9-.1-.9-.1-1.3.3-1.3 1.3v5.7m208.9 32.7h-.4c-5.6-.1-3.9.9-6-4.2-.6-1.5-1.1-3-1.6-4.5-.3-.8-.8-1.2-1.6-1.1H275c-.8 0-1.2.3-1.5 1.1-.9 2.5-2 4.9-2.9 7.4-.4 1-.9 1.4-2 1.4-2.2-.1-4.5 0-6.7 0-1.6 0-1.7-.1-1.1-1.8 3.1-8.3 6.3-16.6 9.5-24.9 2.6-6.8 5.2-13.5 7.7-20.3.4-1 .9-1.5 2-1.4 1.5.1 3 0 4.5 0 .9 0 1.4.4 1.7 1.2 2.7 7.3 5.4 14.7 8.1 22 2.9 7.7 5.7 15.4 8.5 23.1.8 2.1.8 2.1-1.5 2.1-.8-.1-1.8-.1-2.8-.1M282 191.1h4.2c.8 0 1.2-.2.9-1.1-1.6-4.7-3.2-9.4-4.9-14.1-.1-.3-.1-.7-.6-.7-.3 0-.4.4-.5.6-1.4 4.7-2.8 9.3-4.2 14-.3 1.1.1 1.3 1 1.3 1.4-.1 2.8 0 4.1 0m-261.9-6.2v-21.6c0-1.9.1-2 1.9-2 4.2 0 8.3 0 12.5.1 2.5 0 4.9.5 7.2 1.5 3.8 1.6 6 4.5 6.9 8.4.9 4 .8 8-.7 11.8-2.2 5.5-6.8 7.4-12.2 7.8-1.5.1-3.1.1-4.6 0-1.2-.1-1.6.4-1.6 1.6v14.1c0 1.8-.1 1.9-1.9 1.9-1.9 0-3.9-.1-5.8 0-1.4.1-1.7-.5-1.7-1.8.1-7.2 0-14.5 0-21.8m9.4-8.7v5.6c0 .7.1 1.4 1.1 1.4 1.8.1 3.6 0 5.3-.5 1.4-.4 2.5-1.4 3.1-2.8.8-2 .8-4.2.4-6.3-.4-2.1-1.7-3.5-3.8-4-1.5-.4-3.1-.5-4.7-.6-1 0-1.4.4-1.4 1.4v5.8m98.2 8.9v-21.9c0-1.4.4-1.9 1.8-1.8 4.2.1 8.4 0 12.6.1 2.4 0 4.7.5 6.9 1.4 4.8 2 7 5.9 7.5 10.8.4 3.3.1 6.6-1.2 9.7-2.2 5.3-6.7 7.2-12 7.6-1.6.1-3.2.1-4.8 0-1.2 0-1.6.4-1.6 1.6v14.1c0 1.4-.3 2-1.9 1.9-2-.1-4-.1-6 0-1.2 0-1.6-.4-1.6-1.6.4-7.3.3-14.6.3-21.9m9.4-9v5.8c0 1 .4 1.4 1.4 1.4 1.6 0 3.1-.1 4.6-.5 2.1-.5 3.4-1.9 3.9-4 .3-1.7.4-3.4 0-5-.4-2.2-1.7-3.5-3.8-4.1-1.5-.4-3.1-.5-4.7-.6-1 0-1.4.4-1.4 1.4v5.6m-85 8.9v-21.6c0-1.9 0-2 1.9-2h20.6c2 0 2 0 2 2 0 1.4-.1 2.8 0 4.2.1 1.5-.5 1.9-1.9 1.9-3.9-.1-7.7 0-11.6 0-1.3 0-1.7.4-1.7 1.7.1 2.4.1 4.7 0 7.1 0 1.1.4 1.5 1.5 1.5h11.3c1.3 0 1.9.4 1.8 1.8-.1 1.6-.1 3.2 0 4.8.1 1.2-.5 1.6-1.6 1.6H63.2c-1.4 0-1.9.4-1.9 1.8.1 3.1.1 6.2 0 9.3 0 1.1.4 1.5 1.5 1.5h11.9c1.3 0 1.9.4 1.8 1.8-.1 1.7-.1 3.4 0 5.1 0 1-.4 1.3-1.3 1.3H53.1c-1.3 0-1.2-.8-1.2-1.7.2-7.5.2-14.8.2-22.1m147.5-.1v-21.6c0-1.4.4-1.9 1.9-1.9 6.9.1 13.8 0 20.8 0 1.8 0 1.9.1 1.9 1.9v4.6c0 1.2-.4 1.6-1.6 1.6h-11.9c-1.3 0-1.8.4-1.8 1.7.1 2.3.1 4.5 0 6.8 0 1.4.5 1.8 1.8 1.7 3.7-.1 7.5 0 11.2 0 1.4 0 1.9.5 1.8 1.9-.1 1.6-.1 3.2 0 4.8 0 1.1-.4 1.5-1.5 1.5h-11.5c-1.3 0-1.8.4-1.8 1.8.1 3 .1 6.1 0 9.1 0 1.2.4 1.7 1.7 1.7 3.9-.1 7.8 0 11.8 0 1.4 0 2 .4 1.9 1.8-.1 1.5-.1 3.1 0 4.6.1 1.4-.5 1.7-1.8 1.7h-14.1c-2.3 0-4.6-.1-7 0-1.4 0-1.7-.5-1.7-1.8-.1-7.3-.1-14.6-.1-21.9zm-96.4 60.7c.9-2.5 1.7-5 2.5-7.4 2.5-7.5 5-14.9 7.4-22.4.3-.9.8-1.4 1.7-1.4h7.1c1.3 0 1.5.6 1.1 1.6-3.9 10.3-7.9 20.7-11.8 31-1.9 4.9-3.7 9.8-5.5 14.6-.3.9-.8 1.3-1.8 1.3-4.2 0-4.2 0-5.6-3.8-5.3-14.3-10.6-28.6-16-42.9-.6-1.6-.5-1.8 1.3-1.8h6.5c1.2 0 1.7.5 2.1 1.5 3.3 9.4 6.7 18.8 10 28.1.3.6.4 1.1 1 1.6m-48-7.5v-21.8c0-1.8.1-1.9 1.9-1.9h20.7c1.8 0 1.8.1 1.9 1.9v4.8c0 1.1-.4 1.5-1.5 1.4H66.3c-1.4 0-1.9.4-1.9 1.8.1 2.3.1 4.6 0 7 0 1.1.4 1.5 1.5 1.5h11.3c1.4 0 1.9.5 1.8 1.9-.1 1.5-.1 3.1 0 4.6.1 1.4-.5 1.7-1.8 1.7-3.7-.1-7.4 0-11.2 0-1.3 0-1.7.4-1.7 1.7.1 3.1.1 6.2 0 9.3 0 1.3.4 1.8 1.7 1.8 4-.1 7.9 0 11.9 0 1.2 0 1.6.4 1.6 1.6-.1 1.7 0 3.5 0 5.2 0 1-.4 1.4-1.4 1.4H56.5c-1.3 0-1.5-.6-1.5-1.7.2-7.5.2-14.9.2-22.2m87-.1v-21.6c0-1.9 0-2 2-2h20.6c1.8 0 1.9.1 1.9 1.9 0 1.5-.1 3 0 4.5s-.5 1.8-1.9 1.8c-3.9-.1-7.7 0-11.6 0-1.4 0-1.8.5-1.7 1.8.1 2.3.1 4.6 0 7 0 1.2.4 1.6 1.6 1.6h11.5c1.2 0 1.6.4 1.6 1.6-.1 1.7-.1 3.4 0 5.1 0 1.1-.4 1.5-1.5 1.5h-11.5c-1.2 0-1.7.3-1.7 1.6.1 3.1.1 6.3 0 9.4 0 1.3.5 1.7 1.7 1.6 4-.1 7.9 0 11.9 0 1.2 0 1.7.3 1.6 1.6-.1 1.8 0 3.6 0 5.4 0 .8-.3 1.2-1.2 1.2h-22.1c-1.3 0-1.2-.9-1.2-1.7V238m161.9-53v-21.8c0-1.4.4-2 1.9-1.9 1.9.1 3.9.1 5.8 0 1.5-.1 1.7.7 1.7 1.9V198c0 2.3 0 2.3 2.4 2.4h9c1.1 0 1.6.4 1.5 1.5-.1 1.8 0 3.6 0 5.4 0 .9-.4 1.2-1.2 1.2h-19.9c-1.2 0-1.2-.7-1.2-1.6V185zm-178 53.2v-21.6c0-2.1 0-2.1 2.1-2.1h5.2c2 0 2 0 2 2v43.6c0 1.2-.3 1.8-1.6 1.7-2-.1-4.1-.1-6.1 0-1.3 0-1.6-.5-1.6-1.7v-21.9m-11.9-53.1v-21.8c0-1.9 0-2 2-2h5.5c1.8 0 1.9.1 1.9 1.9v43.7c0 1.3-.5 1.7-1.7 1.7-2-.1-4-.1-6 0-1.3.1-1.8-.4-1.8-1.8.1-7.2.1-14.5.1-21.7"/><path d="M147.6 67.4c0 .9-3.9 3.4-4.5 3.1-.3-.2-.5-.5-.8-.9-2.4-3.8-4.9-7.7-7.3-11.5-.6-.9-.4-1.4.5-2 3.5-2.3 3.5-2.4 5.8 1.2 1.9 3 3.8 6 5.8 9 .2.5.4.9.5 1.1m63.7-28.2c-.1.2-.2.5-.4.8-2.5 3.9-4.9 7.7-7.4 11.6-.6.9-1.1 1-2 .4-3.7-2.2-3.7-2.2-1.4-5.8 2-3.1 3.9-6.1 5.8-9.2.6-1 1.2-1.1 2.1-.4.8.6 1.7 1.1 2.5 1.6.4.3.7.5.8 1m-20.6 31.4c-1.3-.8-2.8-1.5-3.9-2.7-.3-.3 0-.7.2-1.1 2.5-4 5-7.9 7.5-11.9.4-.7.9-.9 1.7-.4 4.1 2.1 4.1 2.1 1.6 5.9-1.9 3-3.8 6-5.8 9-.2.6-.4 1.2-1.3 1.2m-63.4-34.5c.5 0 .7.4 1 .8l7.5 11.7c.5.9.3 1.4-.5 1.9-3.6 2.4-3.6 2.4-5.9-1.2-1.9-2.9-3.7-5.9-5.6-8.8-1-1.6-1-1.7.6-2.7.9-.5 1.7-1.1 2.6-1.6.1 0 .2 0 .3-.1M222 22.3c-.1.2-.3.5-.5.9-2.1 3.4-4.3 6.7-6.4 10.1-.6 1.1-1.3 1.3-2.3.5-.8-.6-1.7-1.1-2.5-1.6-.6-.4-.7-.8-.3-1.4 2.3-3.6 4.7-7.3 7-11 .4-.6.8-.9 1.4-.5l3.3 2.1c.2.2.4.4.3.9m-97.4 9c0 .9-4 3.4-4.7 2.9-.3-.2-.5-.6-.7-.9-2.1-3.3-4.2-6.7-6.4-10-.7-1.1-.6-1.7.5-2.4 3.5-2.1 3.4-2.2 5.6 1.3l5.1 8.1c.3.3.4.7.6 1"/></svg>